<?xml version="1.0" encoding="utf-8"?>
<!-- Generator: Adobe Illustrator 16.0.0, SVG Export Plug-In . SVG Version: 6.00 Build 0)  -->
<!DOCTYPE svg PUBLIC "-//W3C//DTD SVG 1.1//EN" "http://www.w3.org/Graphics/SVG/1.1/DTD/svg11.dtd">
<svg version="1.1" id="Layer_1" xmlns="http://www.w3.org/2000/svg" xmlns:xlink="http://www.w3.org/1999/xlink" x="0px" y="0px"
	 width="50px" height="50px" viewBox="0 0 50 50" enable-background="new 0 0 50 50" xml:space="preserve">
<g>
	<circle fill="#006341" cx="25.851" cy="12.744" r="12.744"/>
	<path fill="#006341" d="M41.455,24.292c0,0-1.013-0.688-3.849-0.851c0,0-1.378,0.405-2.107,1.094
		c-0.729,0.689-4.375,3.322-9.521,3.404v0.019c-5.121-0.096-8.748-2.716-9.476-3.402c-0.729-0.688-2.106-1.094-2.106-1.094
		c-2.837,0.161-3.85,0.851-3.85,0.851c-4.78,2.553-7.131,9.197-7.009,17.382c0.121,8.185,8.144,8.225,8.144,8.225L26.022,50v-0.021
		l14.299-0.081c0,0,8.021-0.04,8.143-8.225C48.586,33.489,46.235,26.845,41.455,24.292z"/>
</g>
</svg>
