<?xml version="1.0" encoding="utf-8"?>
<!-- Generator: Adobe Illustrator 16.0.0, SVG Export Plug-In . SVG Version: 6.00 Build 0)  -->
<!DOCTYPE svg PUBLIC "-//W3C//DTD SVG 1.1//EN" "http://www.w3.org/Graphics/SVG/1.1/DTD/svg11.dtd">
<svg version="1.1" id="Layer_1" xmlns="http://www.w3.org/2000/svg" xmlns:xlink="http://www.w3.org/1999/xlink" x="0px" y="0px"
	 width="50px" height="50px" viewBox="0 0 50 50" enable-background="new 0 0 50 50" xml:space="preserve">
<g>
	<path fill="#006341" d="M46.907,21.869H3.094C1.385,21.869,0,23.254,0,24.963c0,1.708,1.385,3.093,3.094,3.093h0.442l2.839,16.041
		c0,0,0.291,2.712,3.024,2.712c2.551,0,14.168,0,15.709,0v0.057c0,0,12.905,0,15.59,0c2.684,0,2.969-2.712,2.969-2.712l2.798-16.098
		h0.442c1.708,0,3.093-1.385,3.093-3.093C50,23.254,48.615,21.869,46.907,21.869z M11.769,41.429
		c-0.825,0.051-1.536-0.576-1.588-1.401L9.531,29.595c-0.045-0.723,0.431-1.358,1.105-1.539h0.777
		c0.604,0.162,1.064,0.694,1.105,1.354l0.65,10.432C13.221,40.666,12.594,41.377,11.769,41.429z M21.831,39.944
		c0,0.827-0.67,1.497-1.497,1.497s-1.497-0.67-1.497-1.497V29.492c0-0.68,0.453-1.253,1.073-1.437h0.849
		c0.62,0.184,1.072,0.757,1.072,1.437V39.944z M31.154,39.888c0,0.827-0.671,1.497-1.498,1.497c-0.826,0-1.497-0.67-1.497-1.497
		V29.436c0-0.621,0.378-1.152,0.916-1.38h1.163c0.537,0.228,0.916,0.759,0.916,1.38V39.888z M40.459,29.651L39.81,40.084
		c-0.052,0.825-0.762,1.452-1.588,1.401c-0.825-0.052-1.452-0.763-1.4-1.588l0.649-10.433c0.052-0.825,0.762-1.452,1.588-1.4
		C39.884,28.115,40.511,28.826,40.459,29.651z"/>
	<path fill="#006341" d="M11.604,10.112c0,0,0.678-2.316,2.882-2.316c2.203,0,4.237-0.014,4.237-0.014v0.099
		c0,0.78,0.633,1.412,1.413,1.412h9.661c0.78,0,1.412-0.632,1.412-1.412v-0.08c0.282,0.002,2.169,0.014,4.2,0.014
		c2.203,0,2.882,2.316,2.882,2.316l2.203,10.142h3.221c0,0-1.271-5.509-2.373-10.537s-5.876-4.972-5.876-4.972H31.21V4.547
		c0-0.779-0.632-1.412-1.412-1.412h-9.661c-0.78,0-1.413,0.633-1.413,1.412v0.198H14.43c0,0-4.774-0.057-5.876,4.972
		S6.181,20.254,6.181,20.254h3.221L11.604,10.112z"/>
</g>
</svg>
