<?xml version="1.0" encoding="utf-8"?>
<!-- Generator: Adobe Illustrator 16.0.0, SVG Export Plug-In . SVG Version: 6.00 Build 0)  -->
<!DOCTYPE svg PUBLIC "-//W3C//DTD SVG 1.1//EN" "http://www.w3.org/Graphics/SVG/1.1/DTD/svg11.dtd">
<svg version="1.1" id="Layer_1" xmlns="http://www.w3.org/2000/svg" xmlns:xlink="http://www.w3.org/1999/xlink" x="0px" y="0px"
	 width="14px" height="14px" viewBox="0 0 14 14" enable-background="new 0 0 14 14" xml:space="preserve">
<path fill="#FFFFFF" d="M13.567,1.177c-0.481-0.367-1.17-0.275-1.537,0.208l-6.771,8.882L1.887,6.767
	c-0.42-0.437-1.115-0.45-1.551-0.029C-0.1,7.157-0.114,7.852,0.307,8.286l4.208,4.369c0.032,0.038,0.067,0.075,0.105,0.109
	l0.022,0.022l0.002-0.002c0.015,0.013,0.03,0.026,0.046,0.039c0.481,0.366,1.169,0.273,1.537-0.208l7.549-9.901
	C14.143,2.232,14.049,1.544,13.567,1.177z"/>
</svg>