<?xml version="1.0" encoding="utf-8"?>
<!-- Generator: Adobe Illustrator 16.0.0, SVG Export Plug-In . SVG Version: 6.00 Build 0)  -->
<!DOCTYPE svg PUBLIC "-//W3C//DTD SVG 1.1//EN" "http://www.w3.org/Graphics/SVG/1.1/DTD/svg11.dtd">
<svg version="1.1" id="Layer_1" xmlns="http://www.w3.org/2000/svg" xmlns:xlink="http://www.w3.org/1999/xlink" x="0px" y="0px"
	 width="15px" height="15px" viewBox="0 0 15 15" enable-background="new 0 0 15 15" xml:space="preserve">
<path fill="#D1D1CF" d="M7.5,0C3.358,0,0,3.358,0,7.5C0,11.643,3.358,15,7.5,15c4.142,0,7.5-3.357,7.5-7.5C15,3.358,11.642,0,7.5,0z
	 M6.266,3.448c0-0.228,0.185-0.413,0.413-0.413h1.663c0.229,0,0.413,0.185,0.413,0.413v1.208c0,0.228-0.185,0.413-0.413,0.413H6.679
	c-0.228,0-0.413-0.185-0.413-0.413V3.448L6.266,3.448z M9.535,11.557c0,0.225-0.184,0.408-0.409,0.408H5.874
	c-0.226,0-0.409-0.184-0.409-0.408v-0.803c0-0.227,0.183-0.409,0.409-0.409h0.483V7.896h-0.47c-0.226,0-0.408-0.183-0.408-0.409
	V6.711c0-0.226,0.183-0.408,0.408-0.408h0.89h1.541h0.005c0.063,0,0.124,0.015,0.177,0.041C8.641,6.41,8.738,6.549,8.738,6.711
	v3.634h0.388c0.226,0,0.409,0.183,0.409,0.408V11.557L9.535,11.557z"/>
</svg>
