<?xml version="1.0" encoding="utf-8"?>
<!-- Generator: Adobe Illustrator 16.0.0, SVG Export Plug-In . SVG Version: 6.00 Build 0)  -->
<!DOCTYPE svg PUBLIC "-//W3C//DTD SVG 1.1//EN" "http://www.w3.org/Graphics/SVG/1.1/DTD/svg11.dtd">
<svg version="1.1" id="Layer_1" xmlns="http://www.w3.org/2000/svg" xmlns:xlink="http://www.w3.org/1999/xlink" x="0px" y="0px"
	 width="50px" height="50px" viewBox="0 0 50 50" enable-background="new 0 0 50 50" xml:space="preserve">
<path fill="#006342" d="M25,0C11.192,0,0,11.193,0,25c0,13.808,11.192,25,25,25c13.807,0,25-11.192,25-25C50,11.193,38.807,0,25,0z
	 M20.886,11.494c0-0.76,0.616-1.376,1.376-1.376h5.545c0.761,0,1.376,0.616,1.376,1.376v4.027c0,0.76-0.615,1.376-1.376,1.376
	h-5.545c-0.76,0-1.376-0.616-1.376-1.376V11.494L20.886,11.494z M31.782,38.521c0,0.751-0.609,1.36-1.361,1.36H19.578
	c-0.752,0-1.361-0.609-1.361-1.36v-2.677c0-0.752,0.609-1.361,1.361-1.361h1.611v-8.166h-1.565c-0.752,0-1.361-0.609-1.361-1.361
	V22.37c0-0.752,0.609-1.361,1.361-1.361h2.966h5.138h0.018c0.212,0,0.411,0.05,0.59,0.137c0.469,0.22,0.793,0.685,0.793,1.225
	v12.113h1.293c0.752,0,1.361,0.609,1.361,1.36V38.521L31.782,38.521z"/>
</svg>
