<?xml version="1.0" encoding="utf-8"?>
<!-- Generator: Adobe Illustrator 16.0.0, SVG Export Plug-In . SVG Version: 6.00 Build 0)  -->
<!DOCTYPE svg PUBLIC "-//W3C//DTD SVG 1.1//EN" "http://www.w3.org/Graphics/SVG/1.1/DTD/svg11.dtd">
<svg version="1.1" id="Layer_1" xmlns="http://www.w3.org/2000/svg" xmlns:xlink="http://www.w3.org/1999/xlink" x="0px" y="0px"
	 width="100px" height="100px" viewBox="0 0 100 100" enable-background="new 0 0 100 100" xml:space="preserve">
<g>
	<defs>
		<path id="SVGID_1_" d="M3.139,27.251c2.723,1.461,40.408,21.676,41.81,22.426c1.406,0.758,3.221,1.116,5.053,1.116
			c1.833,0,3.647-0.358,5.051-1.116c1.397-0.75,39.087-20.965,41.806-22.426c2.727-1.461,5.3-6.046,0.298-6.046H2.84
			C-2.157,21.206,0.416,25.79,3.139,27.251z"/>
	</defs>
	<use xlink:href="#SVGID_1_"  overflow="visible" fill-rule="evenodd" clip-rule="evenodd" fill="#FFFFFF"/>
	<clipPath id="SVGID_2_">
		<use xlink:href="#SVGID_1_"  overflow="visible"/>
	</clipPath>
	<g clip-path="url(#SVGID_2_)">
		<defs>
			<rect id="SVGID_3_" x="-3215.63" y="-2668.063" width="6108.058" height="12290.29"/>
		</defs>
		<use xlink:href="#SVGID_3_"  overflow="visible" fill="#FFFFFF"/>
		<clipPath id="SVGID_4_">
			<use xlink:href="#SVGID_3_"  overflow="visible"/>
		</clipPath>
		<rect x="-21.816" y="-0.609" clip-path="url(#SVGID_4_)" fill="#FFFFFF" width="143.632" height="73.217"/>
	</g>
</g>
<g>
	<defs>
		<path id="SVGID_5_" d="M55.036,54.951c-1.89,0.98-3.21,1.107-5.036,1.107c-1.826,0-3.146-0.127-5.036-1.107
			c-1.885-0.985-39.729-20.75-42.816-22.355C-0.017,31.467,0,32.792,0,33.815v40.702c0,2.326,3.1,5.319,5.511,5.319h88.978
			c2.411,0,5.511-2.993,5.511-5.319V33.815c0-1.023,0.017-2.348-2.148-1.219C94.769,34.201,56.921,53.966,55.036,54.951z"/>
	</defs>
	<use xlink:href="#SVGID_5_"  overflow="visible" fill-rule="evenodd" clip-rule="evenodd" fill="#FFFFFF"/>
	<clipPath id="SVGID_6_">
		<use xlink:href="#SVGID_5_"  overflow="visible"/>
	</clipPath>
	<g clip-path="url(#SVGID_6_)">
		<defs>
			<rect id="SVGID_7_" x="-3204.348" y="-2664.502" width="6086.956" height="12247.826"/>
		</defs>
		<use xlink:href="#SVGID_7_"  overflow="visible" fill="#FFFFFF"/>
		<clipPath id="SVGID_8_">
			<use xlink:href="#SVGID_7_"  overflow="visible"/>
		</clipPath>
		<rect x="-21.739" y="10.424" clip-path="url(#SVGID_8_)" fill="#FFFFFF" width="143.479" height="91.151"/>
	</g>
</g>
</svg>
