<?xml version="1.0" encoding="UTF-8"?>
<svg width="94px" height="94px" viewBox="0 0 60 60" version="1.1" xmlns="http://www.w3.org/2000/svg" xmlns:xlink="http://www.w3.org/1999/xlink">
    <!-- Generator: Sketch 48.2 (47327) - http://www.bohemiancoding.com/sketch -->
    <title>Artboard</title>
    <desc>Created with Sketch.</desc>
    <defs></defs>
    <g id="Page-1" stroke="none" stroke-width="1" fill="none" fill-rule="evenodd">
        <g id="Artboard">
            <g id="Voice-search" transform="translate(1.000000, 1.000000)">
                <circle id="Oval" fill="#3d7a6a" cx="29" cy="29" r="29"></circle>
                <g id="Group" transform="translate(18.259259, 11.814815)">
                    <path d="M16.9808871,11.6100699 C16.9808871,13.1006586 17.0090884,14.5912473 16.9761869,16.081836 C16.9033335,19.3789796 14.5156209,22.1913201 11.3429713,22.7533058 C7.58279405,23.4190056 4.05292764,20.8358009 3.4348485,16.9621999 C3.38079595,16.6221141 3.35259462,16.2747925 3.35259462,15.9298828 C3.3478944,12.9872967 3.31969307,10.0471225 3.36434517,7.10453645 C3.41604761,3.69644288 6.02937081,0.806919818 9.3359767,0.423418843 C12.9104952,0.010974399 16.0643439,2.30715634 16.8351802,5.90579441 C16.9479856,6.43160078 16.9738368,6.98152671 16.9808871,7.52180481 C17.0020381,8.88455984 16.9879374,10.2473149 16.9879374,11.6100699 L16.9808871,11.6100699 Z" id="Fill-1" fill="#FFFFFF"></path>
                    <path d="M4.39275366,31.3497575 L15.938848,31.3497575 M10.1669759,25.8191428 L10.1669759,31.3401097 M20.2301503,15.8481175 C20.2301503,21.552393 15.7249879,26.1785242 10.1669759,26.1785242 C4.60661374,26.1785242 0.101451345,21.552393 0.101451345,15.8481175" id="Stroke-4" stroke="#FFFFFF"></path>
                </g>
            </g>
        </g>
    </g>
</svg>
