<?xml version="1.0" encoding="utf-8"?>
<!-- Generator: Adobe Illustrator 16.0.0, SVG Export Plug-In . SVG Version: 6.00 Build 0)  -->
<!DOCTYPE svg PUBLIC "-//W3C//DTD SVG 1.1//EN" "http://www.w3.org/Graphics/SVG/1.1/DTD/svg11.dtd">
<svg version="1.1" id="Layer_1" xmlns="http://www.w3.org/2000/svg" xmlns:xlink="http://www.w3.org/1999/xlink" x="0px" y="0px"
	 width="50px" height="50px" viewBox="0 0 50 50" enable-background="new 0 0 50 50" xml:space="preserve">
<path fill="#7F7F7F" d="M8.515,48.539c-1.948,1.948-5.106,1.947-7.054,0l0,0c-1.947-1.947-1.948-5.105,0-7.054L41.485,1.461
	c1.948-1.948,5.106-1.947,7.054,0l0,0c1.947,1.947,1.948,5.106,0,7.054L8.515,48.539z"/>
<path fill="#7F7F7F" d="M1.461,8.515c-1.948-1.948-1.947-5.106,0-7.054l0,0c1.947-1.947,5.106-1.948,7.054,0l40.023,40.024
	c1.948,1.948,1.948,5.106,0.001,7.054l0,0c-1.947,1.947-5.105,1.947-7.054-0.001L1.461,8.515z"/>
</svg>
