<?xml version="1.0" encoding="UTF-8"?>
<svg width="94px" height="94px" viewBox="0 0 94 94" version="1.1" xmlns="http://www.w3.org/2000/svg" xmlns:xlink="http://www.w3.org/1999/xlink">
    <!-- Generator: Sketch 48.2 (47327) - http://www.bohemiancoding.com/sketch -->
    <title>Artboard 2</title>
    <desc>Created with Sketch.</desc>
    <defs></defs>
    <g id="Page-1" stroke="none" stroke-width="1" fill="none" fill-rule="evenodd">
        <g id="Artboard-2">
            <g id="Voice-search" transform="translate(2.000000, 2.000000)">
                <circle id="Oval" fill="#3d7a6a" cx="45" cy="45" r="45"></circle>
                <g id="Group" transform="translate(27.434211, 17.565789)">
                    <path d="M27.6255395,18.6490855 C27.6255395,20.9665855 27.6705395,23.2840855 27.6180395,25.6015855 C27.5017895,30.7278355 23.6917895,35.1003355 18.6292895,35.9740855 C12.6292895,37.0090855 6.99678947,32.9928355 6.01053947,26.9703355 C5.92428947,26.4415855 5.87928947,25.9015855 5.87928947,25.3653355 C5.87178947,20.7903355 5.82678947,16.2190855 5.89803947,11.6440855 C5.98053947,6.34533553 10.1505395,1.85283553 15.4267895,1.25658553 C21.1305395,0.615335526 26.1630395,4.18533553 27.3930395,9.78033553 C27.5730395,10.5978355 27.6142895,11.4528355 27.6255395,12.2928355 C27.6592895,14.4115855 27.6367895,16.5303355 27.6367895,18.6490855 L27.6255395,18.6490855 Z" id="Fill-1" fill="#FFFFFF"></path>
                    <path d="M7.53903947,49.3394605 L25.9627895,49.3394605 M16.7527895,40.7407105 L16.7527895,49.3244605 M32.8102895,25.2382105 C32.8102895,34.1069605 25.6215395,41.2994605 16.7527895,41.2994605 C7.88028947,41.2994605 0.691539474,34.1069605 0.691539474,25.2382105" id="Stroke-4" stroke="#FFFFFF" stroke-width="2"></path>
                </g>
                <path d="M67.6088089,18.8385595 L22.3911911,64.0561773" id="Line-2" stroke="#FFFFFF" stroke-width="2" stroke-linecap="square"></path>
                <path d="M66.5334073,17.5789474 L21.3157895,62.7965652" id="Line-2" stroke="#3d7a6a" stroke-width="2" stroke-linecap="square"></path>
            </g>
        </g>
    </g>
</svg>
