<?xml version="1.0" encoding="utf-8"?>
<!-- Generator: Adobe Illustrator 16.0.0, SVG Export Plug-In . SVG Version: 6.00 Build 0)  -->
<!DOCTYPE svg PUBLIC "-//W3C//DTD SVG 1.1//EN" "http://www.w3.org/Graphics/SVG/1.1/DTD/svg11.dtd">
<svg version="1.1" id="Layer_1" xmlns="http://www.w3.org/2000/svg" xmlns:xlink="http://www.w3.org/1999/xlink" x="0px" y="0px"
	 width="50px" height="50px" viewBox="0 0 50 50" enable-background="new 0 0 50 50" xml:space="preserve">
<path fill="#006341" d="M48.603,44.227l0.601-1.118c1.42-2.646,0.891-5.694-1.182-6.806l-7.219-3.866
	c-1.691-0.907-4.024,0.151-5.212,2.364l-1.462,2.725l-0.001-0.002c0,0-0.004,0.009-0.01,0.021c0,0-0.197,0.369-0.208,0.391
	c-0.365,0.607-1.176,1.623-2.326,1.18c-1.738-0.329-6.351-3.505-11.32-7.889c-5.276-4.654-9.15-9.079-9.304-10.53
	c-0.239-0.864,0.402-1.6,0.896-2.018l2.834-2.013c2.047-1.454,2.806-3.901,1.694-5.466L12.158,5.25
	c-0.013-0.019-0.026-0.036-0.04-0.053l-0.563-0.794c-1.362-1.917-4.452-2.062-6.9-0.323L3.619,4.815
	C2.85,5.362,2.234,6.031,1.796,6.75L1.779,6.735c-1.483,2.536-2.065,5.59-1.647,8.821c0.268,2.08,0.955,4.153,1.992,6.102
	c0.256,0.502,1.27,2.076,1.415,2.278c2.376,3.354,6.674,7.956,11.957,12.618c7.058,6.225,13.79,10.719,17.112,11.621
	c1.841,0.62,3.732,0.953,5.588,0.959c3.146,0.01,6.012-0.886,8.305-2.558C47.325,46.029,48.065,45.229,48.603,44.227z"/>
</svg>
