<?xml version="1.0" encoding="utf-8"?>
<!-- Generator: Adobe Illustrator 16.0.0, SVG Export Plug-In . SVG Version: 6.00 Build 0)  -->
<!DOCTYPE svg PUBLIC "-//W3C//DTD SVG 1.1//EN" "http://www.w3.org/Graphics/SVG/1.1/DTD/svg11.dtd">
<svg version="1.1" id="Layer_1" xmlns="http://www.w3.org/2000/svg" xmlns:xlink="http://www.w3.org/1999/xlink" x="0px" y="0px"
	 width="50px" height="50px" viewBox="0 0 50 50" enable-background="new 0 0 50 50" xml:space="preserve">
<path fill="#006341" d="M42.496,16.497C42.496,7.385,35.11,0,26,0S9.504,7.385,9.504,16.497c0,2.062,0.38,4.037,1.071,5.857
	c0,0,9.996,21.658,11.465,24.824c1.288,2.771,3.299,2.826,3.777,2.797c0.059,0.006,0.119,0.01,0.182,0.01
	c0.023,0,0.046,0,0.068-0.002v0.002c0,0,2.412,0.377,3.882-2.787c1.469-3.166,11.492-24.833,11.492-24.833l-0.023,0.008
	C42.114,20.547,42.496,18.566,42.496,16.497z M26.015,25.086c-4.641,0-8.401-3.761-8.401-8.4c0-4.641,3.761-8.401,8.401-8.401
	c4.64,0,8.401,3.761,8.401,8.401C34.416,21.326,30.654,25.086,26.015,25.086z"/>
</svg>
