<?xml version="1.0" encoding="utf-8"?>
<!-- Generator: Adobe Illustrator 16.0.0, SVG Export Plug-In . SVG Version: 6.00 Build 0)  -->
<!DOCTYPE svg PUBLIC "-//W3C//DTD SVG 1.1//EN" "http://www.w3.org/Graphics/SVG/1.1/DTD/svg11.dtd">
<svg version="1.1" id="Layer_1" xmlns="http://www.w3.org/2000/svg" xmlns:xlink="http://www.w3.org/1999/xlink" x="0px" y="0px"
	 width="50px" height="50px" viewBox="0 0 50 50" enable-background="new 0 0 50 50" xml:space="preserve">
<path fill="#DE854A" d="M49.292,44.218l-10.928-11.28c2.342-3.389,3.713-7.498,3.713-11.93C42.077,9.406,32.671,0,21.068,0
	C9.465,0,0.06,9.406,0.06,21.008c0,11.604,9.405,21.009,21.008,21.009c4.537,0,8.738-1.438,12.171-3.883l10.812,11.162
	c1.078,1.113,3.127,0.881,4.574-0.521C50.072,47.372,50.371,45.333,49.292,44.218z M21.046,34.379
	c-7.496,0-13.572-6.076-13.572-13.572S13.55,7.232,21.046,7.232c7.497,0,13.574,6.078,13.574,13.574S28.543,34.379,21.046,34.379z"
	/>
</svg>
